
<svg
xmlns="http://www.w3.org/2000/svg"
xmlns:xlink="http://www.w3.org/1999/xlink"
width="1632"
height="24">

    <!-- Define SVGs -->
    <defs>
        <!-- search -->
        <symbol id="search" viewBox="0 0 24 24" preserveAspectRatio="xMinYMin meet">
            <path d="M0 0h24v24H0z" fill="none"/>
            <path d="M18.65,17.03l-3.67-3.68A5.942,5.942,0,0,0,16,10a6,6,0,1,0-6,6,5.9,5.9,0,0,0,2.72-.65l3.81,3.8a.942.942,0,0,0,1.32,0l.8-.8A.942.942,0,0,0,18.65,17.03Zm-6.99-2.74A4.537,4.537,0,0,1,10,14.6,4.6,4.6,0,1,1,14.6,10a4.5,4.5,0,0,1-.64,2.33A4.6,4.6,0,0,1,11.66,14.29Z"/>
        </symbol>

      
    </defs>

    <!-- Set SVG sprite position and color -->
    <use xlink:href="#search"           x="0"    y="0" fill="#000" />
    
</svg>
